<?xml version="1.0" standalone="no"?>
<!DOCTYPE svg PUBLIC "-//W3C//DTD SVG 20010904//EN"
 "http://www.w3.org/TR/2001/REC-SVG-20010904/DTD/svg10.dtd">
<svg version="1.0" xmlns="http://www.w3.org/2000/svg"
 width="1035.000000pt" height="937.000000pt" viewBox="0 0 1035.000000 937.000000"
 preserveAspectRatio="xMidYMid meet">

<g transform="translate(0.000000,937.000000) scale(0.100000,-0.100000)"
fill="#000000" stroke="none">
<path d="M8265 9354 c-306 -20 -639 -96 -1080 -247 -595 -204 -728 -245 -990
-306 -394 -90 -782 -133 -1193 -130 -128 1 -235 -1 -238 -3 -12 -12 360 -32
606 -32 313 1 534 18 815 65 295 50 467 93 1085 269 542 155 874 200 1256 170
219 -17 343 -49 498 -126 122 -61 206 -122 306 -224 366 -372 571 -982 642
-1905 16 -207 16 -877 0 -1115 -52 -783 -182 -1633 -387 -2540 -345 -1525
-762 -2371 -1300 -2643 -198 -100 -456 -130 -710 -82 -128 24 -239 88 -355
204 -171 172 -311 385 -585 891 -274 507 -395 703 -544 881 -124 148 -239 241
-382 308 -317 148 -687 56 -998 -248 -163 -160 -296 -343 -561 -776 -283 -461
-419 -652 -590 -825 -188 -190 -367 -293 -595 -342 -103 -22 -302 -15 -433 15
-245 56 -513 223 -732 455 -561 592 -997 1610 -1244 2902 -215 1122 -233 2240
-52 3061 191 866 522 1455 971 1730 231 141 440 199 720 199 255 0 487 -50
802 -172 143 -55 411 -190 558 -282 299 -186 500 -305 620 -367 337 -176 696
-297 1040 -351 116 -19 181 -23 375 -23 223 0 280 5 440 37 61 12 98 34 40 24
-185 -32 -460 -37 -635 -11 -281 42 -527 112 -790 225 -262 113 -449 221 -785
455 -262 182 -426 285 -600 377 -274 144 -570 249 -840 295 -149 26 -484 23
-615 -5 -339 -73 -594 -219 -855 -488 -307 -318 -532 -752 -724 -1394 -65
-218 -143 -617 -166 -845 -41 -411 -45 -505 -45 -925 1 -367 9 -538 45 -925
72 -763 245 -1555 490 -2235 416 -1157 1032 -1928 1725 -2159 158 -52 274 -72
465 -78 211 -7 336 10 510 67 249 81 453 214 672 436 207 210 332 383 670 931
260 422 409 611 571 727 71 50 187 96 240 95 80 -1 204 -83 304 -199 126 -146
241 -332 488 -785 304 -557 452 -780 654 -988 233 -240 456 -352 761 -383 123
-12 371 -7 472 11 339 57 621 215 868 484 459 500 804 1385 1084 2781 142 706
228 1344 288 2120 17 227 17 1146 0 1340 -67 744 -203 1288 -430 1716 -267
502 -626 788 -1092 868 -93 16 -408 28 -535 20z"/>
<path d="M2090 7441 c-172 -38 -308 -112 -449 -247 -103 -98 -175 -197 -237
-328 -66 -140 -86 -225 -91 -393 -3 -79 -2 -143 1 -143 23 0 266 185 510 388
49 40 92 70 95 65 4 -4 4 -53 0 -108 -37 -512 43 -1100 207 -1521 300 -773
859 -1245 1614 -1361 171 -26 517 -24 705 5 461 71 950 264 1320 520 147 102
142 109 -42 61 -735 -188 -1383 -236 -1859 -139 -597 123 -1027 475 -1339
1098 -175 351 -278 648 -435 1264 l-68 268 36 28 c99 77 275 176 394 222 29
11 112 36 183 55 72 20 136 38 144 41 10 3 -5 24 -50 68 -71 69 -171 124 -274
152 -93 25 -263 27 -365 5z"/>
</g>
</svg>
