<?xml version="1.0" standalone="no"?>
<!DOCTYPE svg PUBLIC "-//W3C//DTD SVG 20010904//EN"
 "http://www.w3.org/TR/2001/REC-SVG-20010904/DTD/svg10.dtd">
<svg version="1.0" xmlns="http://www.w3.org/2000/svg"
 width="512.000000pt" height="512.000000pt" viewBox="0 0 512.000000 512.000000"
 preserveAspectRatio="xMidYMid meet">

<g transform="translate(0.000000,512.000000) scale(0.100000,-0.100000)"
fill="#000000" stroke="none">
<path d="M2505 4935 c-24 -23 -25 -28 -25 -175 0 -147 1 -152 25 -175 15 -16
36 -25 55 -25 19 0 40 9 55 25 24 23 25 28 25 175 0 147 -1 152 -25 175 -15
16 -36 25 -55 25 -19 0 -40 -9 -55 -25z"/>
<path d="M1365 4638 c-29 -17 -44 -40 -45 -68 0 -28 121 -246 152 -272 46 -40
128 -2 128 58 0 15 -31 80 -72 150 -81 139 -110 162 -163 132z"/>
<path d="M3684 4639 c-28 -14 -164 -248 -164 -283 0 -60 82 -98 128 -58 26 22
152 242 152 264 0 30 -22 65 -47 77 -29 13 -41 13 -69 0z"/>
<path d="M509 3790 c-9 -5 -22 -23 -29 -40 -23 -56 -3 -80 135 -159 68 -39
133 -71 145 -71 33 0 56 16 70 50 23 56 3 80 -134 159 -120 69 -154 80 -187
61z"/>
<path d="M4425 3731 c-65 -38 -125 -77 -132 -87 -34 -46 6 -124 63 -124 15 0
81 31 149 70 138 79 158 104 135 160 -29 69 -67 66 -215 -19z"/>
<path d="M1718 3745 c-339 -53 -649 -281 -802 -590 -50 -100 -94 -240 -103
-327 -5 -51 -3 -59 20 -82 31 -31 75 -34 106 -8 16 12 27 42 40 107 76 368
340 641 709 732 101 25 323 22 422 -5 256 -73 262 -74 410 -79 163 -6 250 6
417 58 203 62 389 62 586 -1 130 -42 347 -176 347 -215 0 -20 -90 -97 -144
-124 -61 -30 -140 -51 -194 -51 -32 0 -49 -6 -67 -25 -53 -52 -15 -135 62
-135 52 0 143 -24 203 -55 127 -64 230 -234 230 -378 0 -75 83 -115 134 -64
17 17 24 39 29 89 3 36 13 81 22 99 15 33 15 30 10 -66 -10 -195 -74 -371
-191 -525 -132 -174 -208 -310 -265 -480 -17 -51 -66 -268 -110 -484 -120
-596 -126 -615 -192 -673 -83 -72 -212 -84 -303 -27 -65 40 -103 105 -133 229
-25 106 -51 145 -93 145 -28 0 -64 -23 -79 -52 -14 -25 31 -218 68 -292 37
-74 116 -152 192 -189 62 -30 72 -32 176 -32 99 0 116 3 169 28 116 54 179
122 222 242 13 37 65 267 114 513 50 246 102 483 117 527 53 161 120 286 236
438 170 223 246 458 233 722 -3 66 -10 137 -15 158 -9 37 -8 38 33 62 61 36
122 55 196 62 48 5 70 12 87 29 50 50 11 134 -61 134 -104 0 -230 53 -306 130
-77 76 -130 202 -130 306 0 24 -8 43 -25 59 -53 54 -135 15 -135 -63 0 -22 -3
-53 -6 -70 l-6 -31 -72 53 c-142 106 -291 170 -465 200 -177 30 -326 17 -560
-49 -245 -69 -369 -69 -592 0 -201 63 -362 77 -541 50z m2350 -489 c25 -37
135 -145 167 -164 20 -12 19 -13 -5 -29 -32 -22 -151 -140 -173 -173 l-17 -25
-17 25 c-22 32 -141 151 -173 173 l-25 17 25 17 c45 31 140 126 161 160 11 18
24 33 27 33 4 0 17 -15 30 -34z"/>
<path d="M1800 3407 c-14 -7 -31 -25 -38 -41 -32 -66 31 -114 263 -201 304
-113 604 -130 915 -49 198 51 408 148 425 197 12 35 -8 74 -47 96 -24 14 -32
12 -129 -33 -183 -85 -332 -126 -529 -147 -217 -22 -488 33 -725 147 -103 49
-100 49 -135 31z"/>
<path d="M185 2615 c-16 -15 -25 -36 -25 -55 0 -19 9 -40 25 -55 23 -24 28
-25 175 -25 147 0 152 1 175 25 33 32 33 78 0 110 -23 24 -28 25 -175 25 -147
0 -152 -1 -175 -25z"/>
<path d="M4585 2615 c-16 -15 -25 -36 -25 -55 0 -19 9 -40 25 -55 23 -24 28
-25 175 -25 147 0 152 1 175 25 16 15 25 36 25 55 0 19 -9 40 -25 55 -23 24
-28 25 -175 25 -147 0 -152 -1 -175 -25z"/>
<path d="M871 2539 c-33 -13 -50 -38 -50 -74 0 -78 91 -109 139 -48 26 34 25
66 -2 97 -28 30 -55 38 -87 25z"/>
<path d="M964 2227 c-53 -46 -43 -72 110 -282 77 -105 153 -248 190 -357 29
-86 47 -165 151 -673 41 -198 81 -379 89 -403 64 -179 268 -297 455 -263 132
25 252 112 304 223 14 29 60 195 102 368 43 173 81 325 85 336 15 39 59 64
112 64 65 0 100 -33 122 -116 34 -124 40 -138 70 -153 36 -17 71 -6 99 31 l20
26 -23 94 c-28 113 -46 152 -97 200 -114 110 -291 104 -398 -13 -22 -24 -46
-57 -53 -74 -6 -16 -46 -169 -87 -340 -41 -171 -81 -323 -87 -340 -7 -16 -28
-47 -47 -68 -91 -101 -238 -114 -346 -31 -70 53 -78 78 -175 550 -123 599
-142 667 -235 841 -52 98 -249 379 -276 393 -29 16 -56 12 -85 -13z"/>
<path d="M613 1528 c-135 -79 -156 -104 -134 -157 12 -29 47 -51 79 -51 23 0
242 126 265 152 39 46 1 128 -60 128 -16 0 -79 -30 -150 -72z"/>
<path d="M4305 1575 c-30 -29 -33 -74 -7 -103 25 -29 243 -152 270 -152 35 0
58 16 72 50 23 56 3 80 -134 159 -69 40 -135 71 -150 71 -15 0 -38 -11 -51
-25z"/>
</g>
</svg>
