<?xml version="1.0" standalone="no"?>
<!DOCTYPE svg PUBLIC "-//W3C//DTD SVG 20010904//EN"
 "http://www.w3.org/TR/2001/REC-SVG-20010904/DTD/svg10.dtd">
<svg version="1.0" xmlns="http://www.w3.org/2000/svg"
 width="512.000000pt" height="512.000000pt" viewBox="0 0 512.000000 512.000000"
 preserveAspectRatio="xMidYMid meet">

<g transform="translate(0.000000,512.000000) scale(0.100000,-0.100000)"
fill="#000000" stroke="none">
<path d="M594 3915 c-97 -17 -135 -30 -229 -78 -161 -82 -297 -256 -340 -437
-62 -258 2 -592 165 -867 l32 -53 -74 0 c-40 0 -84 -6 -98 -13 -55 -28 -64
-94 -18 -137 20 -18 35 -20 153 -20 l132 0 13 -27 c45 -98 80 -240 100 -413
25 -207 84 -441 134 -530 52 -94 138 -150 228 -150 150 0 251 213 333 703 15
83 35 171 45 194 34 78 98 81 134 6 9 -19 30 -110 46 -202 64 -368 126 -553
219 -648 63 -65 150 -71 240 -16 116 71 184 264 241 673 23 170 46 269 84 354
l25 56 400 0 401 0 20 -39 c35 -69 69 -208 90 -364 58 -434 130 -626 262 -691
91 -46 180 -30 237 43 85 107 142 287 202 634 29 172 41 208 78 241 17 16 27
18 49 10 43 -14 68 -80 97 -254 68 -403 155 -628 266 -686 90 -46 225 14 294
132 51 87 107 313 140 564 21 158 37 230 76 330 l30 80 133 0 c119 0 134 2
154 20 46 43 37 109 -18 137 -14 7 -58 13 -98 13 l-74 0 32 53 c163 272 227
609 165 867 -58 240 -251 434 -502 502 -94 25 -303 30 -398 9 -81 -18 -177
-56 -252 -101 l-62 -38 -36 25 c-58 39 -153 81 -240 104 -117 32 -318 32 -430
0 -261 -74 -432 -240 -502 -491 -14 -52 -18 -101 -18 -243 l0 -177 -95 0 -95
0 0 177 c0 200 -10 253 -72 379 -84 174 -239 297 -448 356 -112 31 -314 31
-430 -1 -87 -23 -182 -65 -240 -104 l-36 -25 -65 39 c-162 99 -388 139 -580
104z m330 -181 c74 -19 166 -64 232 -115 69 -53 92 -51 187 15 138 96 299 136
469 117 252 -29 425 -180 475 -414 16 -78 14 -320 -3 -336 -9 -9 -408 1 -576
14 l-88 7 0 128 c0 124 -1 128 -26 154 l-27 26 -328 0 -328 0 -27 -23 c-25
-22 -28 -31 -33 -118 l-6 -95 -175 28 c-270 43 -271 43 -297 19 -44 -42 -40
-103 9 -135 13 -8 109 -29 213 -45 105 -17 205 -34 223 -37 l32 -5 0 -135 c0
-164 10 -197 67 -214 26 -8 137 -10 346 -8 l309 3 24 28 c22 26 24 36 24 144
l0 116 48 -6 c26 -4 142 -9 257 -12 116 -3 233 -8 262 -11 l52 -5 -33 -69
c-18 -38 -63 -120 -99 -182 -155 -268 -188 -364 -227 -648 -38 -277 -85 -458
-137 -527 -35 -48 -55 -43 -91 25 -53 101 -97 273 -147 572 -20 123 -38 175
-79 231 -101 138 -296 127 -391 -21 -34 -53 -52 -120 -80 -295 -43 -262 -110
-489 -155 -530 -18 -17 -21 -17 -46 0 -55 36 -114 226 -150 483 -48 347 -83
452 -244 722 -111 188 -158 316 -181 498 -26 214 35 423 158 533 144 130 372
177 587 123z m2555 15 c110 -13 223 -58 307 -119 85 -63 106 -64 187 -6 137
97 236 129 402 129 170 0 295 -43 402 -137 130 -114 190 -315 163 -542 -21
-179 -68 -302 -193 -515 -138 -235 -183 -362 -221 -632 -47 -322 -91 -486
-145 -540 -37 -38 -53 -32 -85 31 -52 103 -97 275 -136 518 -31 198 -61 270
-135 331 -130 107 -307 46 -376 -130 -9 -23 -24 -87 -33 -142 -51 -305 -102
-506 -152 -592 -27 -46 -38 -51 -70 -29 -53 37 -117 265 -154 547 -36 269 -82
401 -231 655 -78 133 -125 231 -115 241 4 4 109 10 234 14 125 4 260 10 300
14 l72 6 0 -115 c0 -107 2 -117 24 -143 l24 -28 309 -3 c209 -2 320 0 346 8
57 17 67 50 67 214 l0 135 33 5 c17 3 118 20 222 37 105 16 200 37 213 45 49
32 53 93 9 135 -26 24 -27 24 -297 -19 l-175 -28 -6 95 c-5 87 -8 96 -33 118
l-27 23 -328 0 -328 0 -27 -26 c-25 -26 -26 -30 -26 -154 l0 -128 -92 -7
c-184 -13 -563 -23 -572 -14 -15 13 -20 238 -7 316 14 82 56 176 109 246 69
91 220 171 352 187 95 11 98 11 189 -1z m-2029 -655 l0 -66 -37 6 c-21 3 -114
13 -208 22 -93 8 -173 18 -177 20 -4 3 -8 23 -8 45 l0 39 215 0 215 0 0 -66z
m2650 27 c0 -22 -4 -42 -8 -45 -4 -2 -84 -12 -177 -20 -94 -9 -187 -19 -207
-22 l-38 -6 0 66 0 66 215 0 215 0 0 -39z m-2870 -241 c113 -11 208 -20 213
-20 4 0 7 -29 7 -65 l0 -65 -212 2 -213 3 -3 83 c-2 45 -2 82 0 82 2 0 95 -9
208 -20z m2868 -62 l-3 -83 -212 -3 -213 -2 0 65 c0 55 3 65 18 66 9 0 96 9
192 19 96 9 185 18 198 19 22 1 23 -1 20 -81z m-1383 -25 c11 -45 64 -163 106
-235 22 -36 39 -69 39 -72 0 -3 -135 -6 -300 -6 -165 0 -300 3 -300 6 0 3 18
36 40 72 21 37 53 101 70 142 17 41 35 85 40 98 9 21 14 22 154 22 l144 0 7
-27z"/>
</g>
</svg>
