<?xml version="1.0" standalone="no"?>
<!DOCTYPE svg PUBLIC "-//W3C//DTD SVG 20010904//EN"
 "http://www.w3.org/TR/2001/REC-SVG-20010904/DTD/svg10.dtd">
<svg version="1.0" xmlns="http://www.w3.org/2000/svg"
 width="512.000000pt" height="512.000000pt" viewBox="0 0 512.000000 512.000000"
 preserveAspectRatio="xMidYMid meet">

<g transform="translate(0.000000,512.000000) scale(0.100000,-0.100000)"
fill="#000000" stroke="none">
<path d="M1075 4003 c-122 -44 -215 -127 -268 -241 -26 -56 -32 -82 -35 -158
-6 -123 20 -203 100 -315 9 -13 6 -23 -15 -51 -14 -18 -39 -61 -54 -93 -26
-55 -28 -70 -28 -176 0 -113 1 -117 37 -190 25 -51 56 -93 93 -129 l57 -53
-29 -61 c-26 -56 -28 -71 -28 -176 0 -109 2 -119 32 -182 54 -115 149 -199
268 -240 49 -16 49 -17 47 -55 -4 -61 15 -143 53 -220 79 -161 253 -256 440
-239 l70 6 29 -66 c41 -94 118 -174 213 -221 65 -32 86 -37 163 -41 110 -5
200 19 283 77 l57 41 48 -35 c93 -66 134 -79 262 -79 114 -1 117 0 192 37 96
47 173 127 214 221 l29 66 70 -6 c187 -17 361 78 440 239 38 77 57 159 53 220
-2 38 -2 39 47 55 119 41 214 125 268 240 30 63 32 73 32 182 0 105 -2 120
-28 176 l-29 61 57 53 c37 36 68 78 93 129 36 73 37 77 37 190 0 106 -2 121
-28 176 -15 32 -40 75 -54 93 -21 28 -24 38 -15 51 80 112 106 192 100 315 -3
76 -9 102 -35 159 -44 93 -118 169 -212 215 -73 36 -77 37 -190 37 -109 0
-120 -2 -183 -32 -113 -53 -191 -139 -241 -266 -18 -46 -21 -84 -28 -352 -6
-249 -11 -317 -29 -400 -105 -488 -414 -891 -753 -981 -390 -104 -853 357
-987 981 -18 83 -23 151 -29 400 -7 268 -10 306 -28 352 -50 127 -128 213
-241 266 -59 28 -79 32 -167 34 -77 3 -112 -1 -150 -14z m207 -54 c101 -22
184 -76 239 -155 58 -85 62 -105 70 -414 8 -297 16 -371 64 -545 128 -469 457
-849 798 -919 95 -20 119 -20 214 0 341 70 670 450 798 919 48 174 56 248 64
545 8 309 12 329 70 414 56 81 139 134 244 156 79 16 156 4 238 -37 222 -111
275 -397 109 -586 -22 -25 -40 -49 -40 -54 0 -5 11 -20 25 -33 43 -41 84 -113
101 -180 38 -148 -20 -306 -146 -396 -57 -41 -61 -58 -25 -112 36 -55 59 -154
51 -227 -7 -72 -51 -168 -101 -224 -40 -44 -162 -111 -204 -111 -49 0 -53 -10
-55 -121 -2 -92 -5 -111 -31 -164 -78 -162 -259 -247 -435 -205 -61 15 -68 10
-95 -65 -40 -113 -106 -187 -207 -235 -137 -65 -284 -43 -409 61 -26 22 -52
39 -59 39 -6 0 -32 -18 -58 -39 -125 -104 -273 -126 -410 -61 -101 48 -167
122 -207 235 -27 75 -34 80 -95 65 -176 -42 -357 43 -435 205 -26 53 -29 72
-31 164 -2 110 -6 121 -54 121 -36 0 -138 52 -187 94 -56 49 -111 160 -119
241 -8 73 15 172 51 227 36 54 32 70 -27 114 -170 127 -206 363 -80 528 20 27
43 57 50 66 11 15 7 24 -28 66 -52 63 -78 117 -92 193 -29 153 51 315 191 390
90 48 162 59 253 40z"/>
<path d="M1092 3715 c-61 -77 -68 -188 -16 -272 55 -89 111 -61 60 30 -24 41
-28 58 -24 106 3 38 11 66 27 87 13 18 21 40 19 50 -5 30 -43 29 -66 -1z"/>
<path d="M3963 3724 c-5 -15 -1 -27 32 -84 24 -41 19 -115 -12 -169 -50 -90 7
-116 61 -28 51 83 45 195 -15 271 -23 29 -56 34 -66 10z"/>
<path d="M1100 3120 c-61 -61 -76 -170 -36 -255 26 -57 47 -78 73 -73 27 5 27
34 2 70 -17 23 -24 50 -27 93 -3 52 0 65 23 99 43 63 15 116 -35 66z"/>
<path d="M3967 3133 c-14 -13 -6 -43 19 -80 22 -33 25 -46 22 -98 -3 -43 -10
-70 -27 -93 -25 -36 -25 -65 2 -70 48 -9 102 100 94 189 -9 97 -75 188 -110
152z"/>
<path d="M1169 2483 c-21 -24 -18 -150 4 -190 23 -43 82 -99 118 -112 22 -8
32 -7 44 5 22 23 19 30 -27 61 -23 16 -53 44 -66 63 -21 31 -23 44 -19 102 4
65 -3 88 -29 88 -6 0 -18 -7 -25 -17z"/>
<path d="M3904 2490 c-7 -7 -9 -37 -7 -78 4 -58 2 -71 -19 -102 -13 -19 -43
-47 -66 -63 -46 -31 -49 -38 -27 -61 31 -30 121 29 161 106 22 43 29 146 12
178 -15 28 -38 36 -54 20z"/>
<path d="M1495 1930 c-16 -51 34 -146 103 -195 37 -25 53 -30 105 -30 59 0 62
1 62 25 0 22 -5 26 -48 32 -84 12 -157 79 -157 145 0 41 -53 60 -65 23z"/>
<path d="M3572 1938 c-7 -7 -12 -21 -12 -31 0 -66 -73 -133 -157 -145 -43 -6
-48 -10 -48 -32 0 -24 3 -25 62 -25 52 0 68 5 105 30 69 49 119 144 103 195
-7 22 -35 26 -53 8z"/>
<path d="M2067 1539 c-24 -14 -21 -32 10 -64 71 -71 183 -88 271 -43 36 19 47
30 47 48 0 34 -25 36 -81 10 -60 -30 -121 -23 -172 17 -52 41 -55 43 -75 32z"/>
<path d="M2988 1515 c-60 -47 -120 -56 -182 -25 -56 26 -81 24 -81 -10 0 -18
11 -29 47 -48 88 -45 200 -28 271 43 32 32 34 50 8 64 -15 8 -27 3 -63 -24z"/>
</g>
</svg>
