<?xml version="1.0" standalone="no"?>
<!DOCTYPE svg PUBLIC "-//W3C//DTD SVG 20010904//EN"
 "http://www.w3.org/TR/2001/REC-SVG-20010904/DTD/svg10.dtd">
<svg version="1.0" xmlns="http://www.w3.org/2000/svg"
 width="512.000000pt" height="512.000000pt" viewBox="0 0 512.000000 512.000000"
 preserveAspectRatio="xMidYMid meet">

<g transform="translate(0.000000,512.000000) scale(0.100000,-0.100000)"
fill="#000000" stroke="none">
<path d="M1670 5106 c-257 -55 -461 -215 -569 -447 -56 -120 -73 -208 -72
-365 1 -282 56 -544 172 -816 28 -65 77 -206 109 -315 32 -109 61 -206 65
-216 15 -37 57 -47 200 -47 l135 0 0 -230 0 -231 26 -24 c26 -24 32 -25 170
-25 l144 0 0 -100 c0 -55 -3 -100 -7 -100 -5 1 -60 7 -123 15 -63 7 -116 13
-117 12 -3 -4 -20 -162 -17 -166 3 -3 214 -30 247 -31 15 0 17 -15 17 -170 0
-155 -2 -170 -17 -170 -10 1 -66 7 -125 13 l-107 13 -6 -65 c-4 -37 -9 -74
-11 -83 -6 -21 3 -23 154 -39 l112 -12 0 -170 0 -170 -57 6 c-32 3 -88 9 -125
13 l-66 7 -7 -59 c-14 -122 -28 -107 120 -124 l130 -15 3 -169 2 -169 -72 7
c-40 3 -96 9 -125 13 l-51 6 -7 -59 c-3 -33 -8 -71 -11 -85 l-5 -26 113 -12
c62 -7 124 -14 138 -17 22 -4 34 -26 99 -192 98 -248 108 -267 137 -281 35
-15 553 -15 588 0 29 14 35 25 111 216 66 166 40 152 235 128 63 -7 116 -13
117 -12 3 4 20 162 17 166 -3 3 -214 30 -246 31 -16 0 -18 15 -18 170 0 155 2
170 18 170 9 -1 65 -7 124 -13 l107 -13 6 65 c4 37 9 74 11 83 6 21 -3 23
-153 39 l-113 12 0 170 0 170 68 -7 c37 -4 92 -10 124 -13 l56 -6 7 59 c14
122 28 107 -120 124 l-130 15 -3 169 -2 169 72 -7 c40 -3 96 -9 125 -13 l51
-6 7 59 c3 33 8 71 11 85 l5 26 -113 12 c-178 18 -158 -4 -158 176 l0 155 144
0 c138 0 144 1 170 25 l26 24 0 231 0 230 135 0 c186 0 185 -1 229 143 19 61
49 160 66 219 17 58 51 150 74 205 97 220 160 480 175 725 13 225 -3 325 -80
483 -114 236 -323 391 -589 435 -144 24 -272 4 -500 -78 -226 -82 -494 -82
-720 0 -181 65 -241 79 -355 83 -71 3 -133 0 -175 -9z m372 -201 c224 -80 346
-105 518 -105 174 0 298 25 520 106 99 36 111 38 220 38 97 0 128 -5 195 -27
158 -52 293 -171 364 -320 53 -111 62 -159 62 -308 -1 -260 -55 -503 -171
-774 -26 -60 -69 -185 -96 -277 l-49 -168 -1045 0 -1045 0 -49 168 c-27 92
-70 217 -96 277 -116 271 -170 514 -171 774 0 149 9 197 62 308 64 134 193
256 323 306 155 59 296 60 458 2z m1198 -2175 l0 -170 -680 0 -680 0 0 170 0
170 680 0 680 0 0 -170z m-340 -485 c0 -136 -1 -145 -19 -145 -10 0 -159 16
-331 35 -172 19 -316 35 -321 35 -5 0 -9 50 -9 110 l0 110 340 0 340 0 0 -145z
m-295 -288 l290 -32 3 -171 2 -170 -332 37 c-183 21 -336 38 -340 38 -5 1 -8
78 -8 171 l0 171 48 -6 c26 -4 178 -21 337 -38z m-35 -507 c157 -17 295 -33
308 -36 22 -4 22 -6 22 -175 l0 -170 -32 6 c-18 3 -161 19 -318 35 -157 17
-295 33 -307 36 -23 4 -23 6 -23 175 l0 170 33 -6 c17 -3 160 -19 317 -35z
m323 -549 c4 -1 7 -78 7 -171 l0 -171 -47 6 c-27 4 -178 21 -338 38 l-290 32
-3 171 -2 170 332 -37 c183 -21 336 -38 341 -38z m-310 -478 c152 -16 257 -32
257 -38 0 -5 -18 -56 -41 -113 l-41 -102 -198 0 -198 0 -56 140 c-31 77 -56
143 -56 146 0 4 17 4 38 1 20 -3 153 -18 295 -34z"/>
<path d="M1600 4726 c-101 -74 -184 -195 -215 -311 -8 -33 -15 -99 -15 -147
l0 -88 84 0 84 0 4 98 c3 78 9 108 30 154 29 62 92 137 143 168 l34 21 -41 69
c-22 39 -45 70 -51 70 -7 0 -32 -15 -57 -34z"/>
</g>
</svg>
