<?xml version="1.0" standalone="no"?>
<!DOCTYPE svg PUBLIC "-//W3C//DTD SVG 20010904//EN"
 "http://www.w3.org/TR/2001/REC-SVG-20010904/DTD/svg10.dtd">
<svg version="1.0" xmlns="http://www.w3.org/2000/svg"
 width="512.000000pt" height="512.000000pt" viewBox="0 0 512.000000 512.000000"
 preserveAspectRatio="xMidYMid meet">

<g transform="translate(0.000000,512.000000) scale(0.100000,-0.100000)"
fill="#000000" stroke="none">
<path d="M29 5091 l-29 -29 0 -579 c0 -512 2 -581 16 -601 9 -13 77 -74 151
-137 152 -129 175 -138 237 -93 l28 20 152 -151 c187 -185 184 -184 287 -84
l70 67 199 -199 c110 -110 200 -205 200 -211 0 -6 -19 -51 -42 -100 -38 -81
-42 -97 -42 -169 -1 -71 3 -88 32 -147 40 -82 111 -149 190 -178 46 -18 72
-21 137 -18 68 4 102 13 228 63 81 32 147 62 147 66 0 15 -52 139 -60 144 -5
3 -71 -20 -148 -50 -148 -58 -196 -66 -255 -41 -67 27 -116 120 -101 189 3 18
21 61 39 97 52 105 59 134 44 188 -11 42 -38 73 -230 267 l-218 220 64 66 c57
58 65 72 65 105 0 35 -10 48 -149 188 l-148 151 23 34 c27 38 29 56 11 89 -19
33 -767 826 -799 846 -38 23 -66 20 -99 -13z m403 -549 c139 -147 264 -280
278 -295 l24 -28 -194 -194 c-107 -107 -198 -195 -203 -195 -4 0 -43 30 -87
68 l-80 67 0 423 c0 232 2 422 4 422 3 0 118 -121 258 -268z m451 -640 l107
-107 -110 -110 -110 -110 -110 110 -110 110 107 107 c59 60 110 108 113 108 3
0 54 -48 113 -108z"/>
<path d="M1620 4770 c-218 -31 -430 -131 -594 -281 l-69 -63 64 -57 63 -56 77
66 c143 123 289 190 477 218 153 22 273 8 447 -53 173 -61 261 -82 378 -93
185 -16 329 8 572 93 164 58 289 74 426 57 355 -46 642 -277 755 -608 44 -130
55 -245 43 -442 -25 -394 -130 -731 -338 -1091 l-79 -135 -31 -230 c-17 -126
-33 -244 -36 -261 l-5 -31 82 -11 c45 -7 83 -10 85 -8 2 2 19 113 37 247 l34
244 43 70 c228 374 351 765 379 1205 7 108 7 190 0 259 -66 638 -658 1073
-1287 945 -40 -8 -129 -35 -197 -59 -162 -57 -258 -76 -386 -76 -129 0 -224
19 -389 77 -69 25 -157 52 -196 60 -87 19 -268 26 -355 14z"/>
<path d="M832 3159 c-40 -9 -75 -19 -79 -22 -9 -10 43 -196 92 -327 56 -151
117 -278 200 -420 l67 -115 109 -800 c62 -450 118 -829 129 -867 83 -276 442
-356 640 -142 81 88 79 83 226 960 93 559 140 817 154 843 36 71 114 121 190
121 89 0 181 -69 204 -154 8 -28 51 -274 96 -546 45 -272 85 -498 89 -502 6
-7 148 15 157 25 6 5 -130 845 -163 1006 -39 197 -171 320 -359 338 -160 15
-338 -102 -388 -255 -9 -26 -74 -400 -146 -832 -71 -432 -137 -804 -146 -827
-30 -83 -143 -146 -226 -128 -80 18 -145 72 -168 141 -5 16 -59 398 -121 849
l-111 820 -78 135 c-123 213 -212 421 -260 610 -12 47 -25 90 -28 95 -5 8 -29
6 -80 -6z"/>
<path d="M4377 2022 c-597 -597 -617 -619 -617 -655 0 -30 8 -46 42 -83 l42
-45 -166 -166 -167 -166 -80 36 c-118 54 -181 69 -322 74 -95 4 -147 1 -210
-12 -221 -44 -390 -161 -467 -323 -35 -72 -37 -83 -37 -173 0 -90 2 -99 37
-171 115 -232 443 -374 759 -329 240 35 437 159 520 327 32 65 34 75 34 174 0
113 -13 158 -72 243 l-27 38 162 162 162 161 37 -36 c42 -41 76 -57 108 -50
12 2 237 219 514 496 l491 491 0 288 0 288 -25 24 c-17 18 -35 25 -62 25 -37
0 -55 -17 -656 -618z m146 -364 l-428 -428 -67 67 -68 68 492 492 493 493 3
-132 3 -132 -428 -428z m-1281 -827 c256 -66 393 -244 318 -415 -43 -95 -165
-183 -310 -222 -88 -23 -263 -24 -350 -1 -204 55 -340 185 -340 326 0 106 118
234 263 288 129 47 291 57 419 24z"/>
</g>
</svg>
