<?xml version="1.0" standalone="no"?>
<!DOCTYPE svg PUBLIC "-//W3C//DTD SVG 20010904//EN"
 "http://www.w3.org/TR/2001/REC-SVG-20010904/DTD/svg10.dtd">
<svg version="1.0" xmlns="http://www.w3.org/2000/svg"
 width="512.000000pt" height="512.000000pt" viewBox="0 0 512.000000 512.000000"
 preserveAspectRatio="xMidYMid meet">

<g transform="translate(0.000000,512.000000) scale(0.100000,-0.100000)"
fill="#000000" stroke="none">
<path d="M255 5106 c-61 -19 -96 -40 -139 -83 -104 -103 -123 -280 -42 -399
14 -21 473 -493 1018 -1047 546 -554 993 -1012 993 -1017 0 -5 -447 -463 -993
-1017 -546 -554 -1005 -1028 -1021 -1051 -103 -157 -37 -378 139 -461 44 -21
70 -26 130 -26 94 0 161 29 242 106 31 30 543 548 1138 1152 1216 1235 1135
1142 1135 1297 0 155 88 55 -1173 1335 -618 627 -1142 1152 -1165 1168 -77 52
-179 69 -262 43z"/>
<path d="M2483 5102 c-74 -27 -128 -67 -167 -127 -43 -64 -60 -127 -54 -203 9
-126 -36 -76 1059 -1186 552 -560 1004 -1022 1004 -1026 0 -4 -452 -466 -1004
-1026 -1128 -1144 -1056 -1061 -1056 -1214 0 -98 22 -154 88 -222 60 -62 136
-93 227 -93 145 1 51 -85 1317 1199 624 633 1146 1169 1158 1191 13 22 29 68
36 103 16 75 2 163 -36 227 -13 23 -534 559 -1158 1191 -1011 1026 -1140 1153
-1188 1174 -73 31 -160 36 -226 12z"/>
</g>
</svg>
