<?xml version="1.0" standalone="no"?>
<!DOCTYPE svg PUBLIC "-//W3C//DTD SVG 20010904//EN"
 "http://www.w3.org/TR/2001/REC-SVG-20010904/DTD/svg10.dtd">
<svg version="1.0" xmlns="http://www.w3.org/2000/svg"
 width="850.000000pt" height="980.000000pt" viewBox="0 0 850.000000 980.000000"
 preserveAspectRatio="xMidYMid meet">

<g transform="translate(0.000000,980.000000) scale(0.100000,-0.100000)"
fill="#000000" stroke="none">
<path d="M1600 9793 c-544 -58 -850 -168 -1084 -393 -296 -284 -442 -758 -497
-1610 -17 -252 -17 -890 -1 -1055 57 -584 188 -1024 478 -1605 117 -234 256
-482 410 -731 l91 -147 12 -138 c128 -1464 189 -1988 286 -2469 138 -686 333
-1144 600 -1410 131 -131 242 -190 409 -220 351 -61 702 59 885 302 141 187
224 428 346 1003 138 646 245 959 420 1220 59 88 277 340 294 340 11 0 178
-183 238 -260 136 -176 236 -384 322 -671 55 -185 83 -297 157 -644 96 -447
152 -642 231 -799 95 -190 227 -330 384 -409 128 -65 224 -88 384 -94 l130 -5
95 47 c162 80 292 181 410 320 322 380 546 998 685 1890 51 330 96 733 180
1595 40 416 37 404 170 620 493 800 744 1443 830 2125 29 225 39 563 26 887
-36 937 -133 1405 -360 1745 -167 249 -423 411 -786 496 -236 56 -506 77 -980
77 -404 0 -596 -17 -865 -77 -301 -66 -495 -157 -805 -378 -82 -58 -177 -119
-210 -135 -113 -54 -278 -66 -387 -29 -79 26 -110 45 -348 204 -431 288 -703
373 -1295 405 -176 9 -776 11 -855 3z m5467 -729 c77 -20 151 -66 223 -139 75
-76 103 -114 145 -196 68 -132 86 -251 48 -305 -32 -45 -98 -87 -134 -86 -71
2 -143 82 -168 186 -24 98 -82 181 -155 219 -32 16 -64 22 -146 25 -128 5
-235 -13 -409 -70 l-123 -40 -42 30 c-66 48 -89 87 -84 150 5 59 26 87 92 126
89 52 283 106 426 120 79 7 267 -4 327 -20z"/>
</g>
</svg>
